<?xml version="1.0" encoding="UTF-8"?>
<svg xmlns="http://www.w3.org/2000/svg" viewBox="0 0 864.25 199.2" height="2rem">
   <path d="M390 54l-30.07 43.28c-2.17 3.12-2.94 6.77-2.26 8.94 1.69 5.4 4.2 11.49 4.2 11.49s6.57.23 12.22-.07c2.28-.12 5.43-2.12 7.6-5.23L422.28 54z" fill="#fac319" />
   <path d="M313.53 54l30.08 43.27c2.17 3.12 2.94 6.77 2.26 8.94-1.68 5.41-4.2 11.49-4.2 11.49s-6.57.23-12.22-.07c-2.28-.12-5.43-2.12-7.6-5.23L281.26 54z" fill="#71be4b" />
   <path d="M245.33 31.88C233.13 10.43 212.2 0 181.36 0 154 0 134.7 7.87 122.23 24.05 109.93 40 102 64.72 102 99.6s8 59.59 20.26 75.54c12.44 16.19 31.74 24.06 59.1 24.06 27.64 0 47.13-8.2 59.64-25.2 11.77-15.94 19.24-39.59 19.24-74.43 0-20.95-3.46-47.58-14.91-67.72m-64-7.31c33.29 0 52.32 12.79 52.32 75s-19 74.63-52.32 74.63c-33.62 0-52.83-12.39-52.83-74.63s19.21-75 52.83-75M0 38l17.75 19.5 2.08-1.5C21.93 54.57 35 44.61 42.2 39.15v157.07h26.49V3.63H45.86z" fill="#0f2b53" />
   <path d="M393 196.07l-33-47.57c-2.16-3.11-2.94-6.76-2.26-8.94 1.69-5.4 4.2-11.48 4.2-11.48s6.57-.24 12.22.06c2.28.13 5.43 2.12 7.59 5.23l43.56 62.7z" fill="#00a1df" />
   <path d="M310.32 196.34l33.29-47.85c2.17-3.11 2.94-6.76 2.26-8.94-1.69-5.4-4.2-11.48-4.2-11.48s-6.57-.24-12.22.06c-2.28.13-5.43 2.12-7.59 5.23l-43.81 63z" fill="#e84b50" />
   <path d="M516.78 125.9h22.26v-7.95h-22.26v-13.26h26.04v-8.02h-34.84v51.91h35.05v-8.02h-26.25V125.9zm74.45 6.8l-23.01-36.03h-8.28v51.91h8.44v-36.37l23.14 36.37h8.22V96.67h-8.51v36.03zm46.96-36.87c-10.08 0-20.29 6.56-20.29 19.09v16.66c0 12.37 10.3 17.91 20.5 17.91s20.21-6.59 20.21-19.17v-16c0-10.87-8.39-18.49-20.42-18.49zm-11.5 18.88c0-7.5 5.71-10.86 11.36-10.86 7.19 0 11.84 4 11.84 10.23v16.66c0 7.36-5.77 10.66-11.49 10.66-7 0-11.71-4.17-11.71-10.38zm74.21 11.68l-14.15-29.65h-9.98v51.84h8.51v-34.84l12.15 25.25h6.68l12.07-25.22v34.81h8.58V96.74h-10.05l-13.81 29.65zm92.95-30.56c-11.94 0-20.28 7.76-20.28 18.88v16.87c0 10.71 8.23 17.91 20.49 17.91 11.34 0 19-6.61 19-16.44v-2.71h-8.44v1.87c0 5.58-4.13 9.19-10.52 9.19-7 0-11.7-4.17-11.7-10.38V114.5c0-7.36 5.7-10.65 11.35-10.65 5 0 10.87 2.4 10.87 9.18v2.37H813v-3.14c0-9.67-7.86-16.43-19.15-16.43zm58.98 23.55l-9.17-2.52c-6.51-1.82-7.27-4.7-7.27-6.7 0-4.87 4.65-6.59 8.62-6.59 5.08 0 8.62 2 10.55 5.9l.39.8 7.65-3.06-.32-.88c-2.4-6.67-9-10.5-18.13-10.5-10.25 0-17.41 6.12-17.41 14.89 0 7.35 3.71 11.66 12 14l9.08 2.45c4.78 1.43 6.73 3.5 6.73 7.12 0 5.34-5.51 7.23-10.23 7.23-6 0-10.52-2.86-12.33-7.84l-.33-.92-8 3 .25.86c2.37 8 9.88 12.8 20.11 12.8 11.28 0 19.16-6.47 19.16-15.74.07-7.5-3.77-12.32-11.35-14.3zM746.62 96.74h8.79v51.84h-8.79zm-279.89 32.38h13.44v3.16c0 6.73-5.74 9.12-10.65 9.12-7 0-11.71-4.17-11.71-10.38V114.5c0-7.36 5.71-10.65 11.36-10.65 5.25 0 10.86 2.3 10.86 8.76v2.3h8.45v-3.07c0-11.06-9.67-16-19.24-16-11.9 0-20.22 7.76-20.22 18.88v16.87c0 10.71 8.24 17.91 20.5 17.91 11.42 0 19.09-6.61 19.09-16.44V121h-21.88z" fill="#0f2b53" />
</svg>